<svg xmlns="http://www.w3.org/2000/svg" xmlns:xlink="http://www.w3.org/1999/xlink" width="500" zoomAndPan="magnify" viewBox="0 0 375 374.999991" height="500" preserveAspectRatio="xMidYMid meet" version="1.0"><defs><g/><clipPath id="dca61c517f"><path d="M 222.535156 211.519531 L 227.066406 211.519531 L 227.066406 216.089844 L 222.535156 216.089844 Z M 222.535156 211.519531 " clip-rule="nonzero"/></clipPath><clipPath id="bc9db1a1da"><path d="M 189 159.09375 L 194 159.09375 L 194 163 L 189 163 Z M 189 159.09375 " clip-rule="nonzero"/></clipPath><clipPath id="6e49c68760"><path d="M 112.5 193 L 125 193 L 125 205 L 112.5 205 Z M 112.5 193 " clip-rule="nonzero"/></clipPath><clipPath id="bb8a611a97"><path d="M 255 196.667969 L 262.417969 196.667969 L 262.417969 204.246094 L 255 204.246094 Z M 255 196.667969 " clip-rule="nonzero"/></clipPath></defs><rect x="-37.5" width="450" fill="#ffffff" y="-37.499999" height="449.999989" fill-opacity="1"/><rect x="-37.5" width="450" fill="#ffffff" y="-37.499999" height="449.999989" fill-opacity="1"/><rect x="-37.5" width="450" fill="#ffffff" y="-37.499999" height="449.999989" fill-opacity="1"/><path fill="#336bdf" d="M 184.554688 168.636719 C 184.554688 169.503906 183.855469 170.207031 182.988281 170.207031 C 182.125 170.207031 181.425781 169.503906 181.425781 168.636719 C 181.425781 167.769531 182.125 167.066406 182.988281 167.066406 C 183.855469 167.066406 184.554688 167.769531 184.554688 168.636719 " fill-opacity="1" fill-rule="nonzero"/><path fill="#adeef7" d="M 215.691406 165.59375 C 215.691406 167.570312 214.09375 169.175781 212.121094 169.175781 C 210.152344 169.175781 208.554688 167.570312 208.554688 165.59375 C 208.554688 163.617188 210.152344 162.015625 212.121094 162.015625 C 214.09375 162.015625 215.691406 163.617188 215.691406 165.59375 " fill-opacity="1" fill-rule="nonzero"/><path fill="#336bdf" d="M 212.121094 162.445312 C 210.394531 162.445312 208.984375 163.859375 208.984375 165.59375 C 208.984375 167.328125 210.394531 168.742188 212.121094 168.742188 C 213.851562 168.742188 215.257812 167.328125 215.257812 165.59375 C 215.257812 163.859375 213.851562 162.445312 212.121094 162.445312 Z M 212.121094 169.609375 C 209.917969 169.609375 208.121094 167.808594 208.121094 165.59375 C 208.121094 163.382812 209.917969 161.582031 212.121094 161.582031 C 214.328125 161.582031 216.125 163.382812 216.125 165.59375 C 216.125 167.808594 214.328125 169.609375 212.121094 169.609375 " fill-opacity="1" fill-rule="nonzero"/><path fill="#adeef7" d="M 220.074219 211.144531 C 220.074219 212.09375 219.308594 212.863281 218.359375 212.863281 C 217.414062 212.863281 216.644531 212.09375 216.644531 211.144531 C 216.644531 210.191406 217.414062 209.421875 218.359375 209.421875 C 219.308594 209.421875 220.074219 210.191406 220.074219 211.144531 " fill-opacity="1" fill-rule="nonzero"/><path fill="#336bdf" d="M 218.359375 209.855469 C 217.652344 209.855469 217.078125 210.433594 217.078125 211.144531 C 217.078125 211.851562 217.652344 212.429688 218.359375 212.429688 C 219.070312 212.429688 219.644531 211.851562 219.644531 211.144531 C 219.644531 210.433594 219.070312 209.855469 218.359375 209.855469 Z M 218.359375 213.296875 C 217.175781 213.296875 216.214844 212.332031 216.214844 211.144531 C 216.214844 209.957031 217.175781 208.988281 218.359375 208.988281 C 219.546875 208.988281 220.507812 209.957031 220.507812 211.144531 C 220.507812 212.332031 219.546875 213.296875 218.359375 213.296875 " fill-opacity="1" fill-rule="nonzero"/><path fill="#adeef7" d="M 223 213.101562 C 223 214.050781 222.230469 214.820312 221.28125 214.820312 C 220.335938 214.820312 219.570312 214.050781 219.570312 213.101562 C 219.570312 212.148438 220.335938 211.378906 221.28125 211.378906 C 222.230469 211.378906 223 212.148438 223 213.101562 " fill-opacity="1" fill-rule="nonzero"/><path fill="#336bdf" d="M 221.28125 211.8125 C 220.578125 211.8125 220 212.390625 220 213.101562 C 220 213.808594 220.578125 214.386719 221.28125 214.386719 C 221.992188 214.386719 222.566406 213.808594 222.566406 213.101562 C 222.566406 212.390625 221.992188 211.8125 221.28125 211.8125 Z M 221.28125 215.253906 C 220.097656 215.253906 219.136719 214.289062 219.136719 213.101562 C 219.136719 211.914062 220.097656 210.945312 221.28125 210.945312 C 222.46875 210.945312 223.429688 211.914062 223.429688 213.101562 C 223.429688 214.289062 222.46875 215.253906 221.28125 215.253906 " fill-opacity="1" fill-rule="nonzero"/><path fill="#adeef7" d="M 231.800781 210.855469 C 231.800781 211.808594 231.03125 212.578125 230.085938 212.578125 C 229.136719 212.578125 228.367188 211.808594 228.367188 210.855469 C 228.367188 209.90625 229.136719 209.136719 230.085938 209.136719 C 231.03125 209.136719 231.800781 209.90625 231.800781 210.855469 " fill-opacity="1" fill-rule="nonzero"/><path fill="#336bdf" d="M 230.085938 209.570312 C 229.378906 209.570312 228.800781 210.148438 228.800781 210.855469 C 228.800781 211.566406 229.378906 212.144531 230.085938 212.144531 C 230.792969 212.144531 231.367188 211.566406 231.367188 210.855469 C 231.367188 210.148438 230.792969 209.570312 230.085938 209.570312 Z M 230.085938 213.011719 C 228.902344 213.011719 227.9375 212.042969 227.9375 210.855469 C 227.9375 209.667969 228.902344 208.703125 230.085938 208.703125 C 231.269531 208.703125 232.230469 209.667969 232.230469 210.855469 C 232.230469 212.042969 231.269531 213.011719 230.085938 213.011719 " fill-opacity="1" fill-rule="nonzero"/><path fill="#adeef7" d="M 226.609375 213.9375 C 226.609375 214.886719 225.839844 215.65625 224.894531 215.65625 C 223.949219 215.65625 223.179688 214.886719 223.179688 213.9375 C 223.179688 212.984375 223.949219 212.214844 224.894531 212.214844 C 225.839844 212.214844 226.609375 212.984375 226.609375 213.9375 " fill-opacity="1" fill-rule="nonzero"/><g clip-path="url(#dca61c517f)"><path fill="#336bdf" d="M 224.894531 212.648438 C 224.1875 212.648438 223.613281 213.226562 223.613281 213.9375 C 223.613281 214.648438 224.1875 215.222656 224.894531 215.222656 C 225.601562 215.222656 226.175781 214.648438 226.175781 213.9375 C 226.175781 213.226562 225.601562 212.648438 224.894531 212.648438 Z M 224.894531 216.089844 C 223.710938 216.089844 222.746094 215.125 222.746094 213.9375 C 222.746094 212.75 223.710938 211.78125 224.894531 211.78125 C 226.078125 211.78125 227.042969 212.75 227.042969 213.9375 C 227.042969 215.125 226.078125 216.089844 224.894531 216.089844 " fill-opacity="1" fill-rule="nonzero"/></g><path fill="#adeef7" d="M 229.570312 212.863281 C 229.570312 213.8125 228.800781 214.582031 227.851562 214.582031 C 226.90625 214.582031 226.140625 213.8125 226.140625 212.863281 C 226.140625 211.914062 226.90625 211.144531 227.851562 211.144531 C 228.800781 211.144531 229.570312 211.914062 229.570312 212.863281 " fill-opacity="1" fill-rule="nonzero"/><path fill="#336bdf" d="M 227.851562 211.574219 C 227.148438 211.574219 226.570312 212.152344 226.570312 212.863281 C 226.570312 213.574219 227.148438 214.152344 227.851562 214.152344 C 228.5625 214.152344 229.136719 213.574219 229.136719 212.863281 C 229.136719 212.152344 228.5625 211.574219 227.851562 211.574219 Z M 227.851562 215.019531 C 226.671875 215.019531 225.707031 214.050781 225.707031 212.863281 C 225.707031 211.675781 226.671875 210.710938 227.851562 210.710938 C 229.035156 210.710938 230 211.675781 230 212.863281 C 230 214.050781 229.035156 215.019531 227.851562 215.019531 " fill-opacity="1" fill-rule="nonzero"/><path fill="#336bdf" d="M 244.578125 203.964844 C 244.578125 205.839844 243.0625 207.363281 241.191406 207.363281 C 239.316406 207.363281 237.800781 205.839844 237.800781 203.964844 C 237.800781 202.085938 239.316406 200.5625 241.191406 200.5625 C 243.0625 200.5625 244.578125 202.085938 244.578125 203.964844 " fill-opacity="1" fill-rule="nonzero"/><g clip-path="url(#bc9db1a1da)"><path fill="#336bdf" d="M 193.328125 160.816406 C 193.328125 161.765625 192.558594 162.535156 191.613281 162.535156 C 190.664062 162.535156 189.898438 161.765625 189.898438 160.816406 C 189.898438 159.863281 190.664062 159.09375 191.613281 159.09375 C 192.558594 159.09375 193.328125 159.863281 193.328125 160.816406 " fill-opacity="1" fill-rule="nonzero"/></g><path fill="#336bdf" d="M 139.464844 165.925781 C 139.464844 166.875 138.695312 167.644531 137.75 167.644531 C 136.800781 167.644531 136.03125 166.875 136.03125 165.925781 C 136.03125 164.972656 136.800781 164.203125 137.75 164.203125 C 138.695312 164.203125 139.464844 164.972656 139.464844 165.925781 " fill-opacity="1" fill-rule="nonzero"/><path fill="#336bdf" d="M 182.007812 203.054688 C 182.007812 205.492188 180.042969 207.464844 177.613281 207.464844 C 175.1875 207.464844 173.21875 205.492188 173.21875 203.054688 C 173.21875 200.621094 175.1875 198.648438 177.613281 198.648438 C 180.042969 198.648438 182.007812 200.621094 182.007812 203.054688 " fill-opacity="1" fill-rule="nonzero"/><path fill="#adeef7" d="M 150.769531 203.054688 C 150.769531 205.199219 149.035156 206.9375 146.898438 206.9375 C 144.761719 206.9375 143.03125 205.199219 143.03125 203.054688 C 143.03125 200.910156 144.761719 199.175781 146.898438 199.175781 C 149.035156 199.175781 150.769531 200.910156 150.769531 203.054688 " fill-opacity="1" fill-rule="nonzero"/><path fill="#336bdf" d="M 146.898438 199.609375 C 145.003906 199.609375 143.460938 201.15625 143.460938 203.054688 C 143.460938 204.957031 145.003906 206.503906 146.898438 206.503906 C 148.792969 206.503906 150.335938 204.957031 150.335938 203.054688 C 150.335938 201.15625 148.792969 199.609375 146.898438 199.609375 Z M 146.898438 207.371094 C 144.527344 207.371094 142.597656 205.4375 142.597656 203.054688 C 142.597656 200.675781 144.527344 198.742188 146.898438 198.742188 C 149.273438 198.742188 151.199219 200.675781 151.199219 203.054688 C 151.199219 205.4375 149.273438 207.371094 146.898438 207.371094 " fill-opacity="1" fill-rule="nonzero"/><path fill="#adeef7" d="M 169.789062 181.625 C 169.789062 190.292969 162.785156 197.320312 154.144531 197.320312 C 145.503906 197.320312 138.496094 190.292969 138.496094 181.625 C 138.496094 172.953125 145.503906 165.925781 154.144531 165.925781 C 162.785156 165.925781 169.789062 172.953125 169.789062 181.625 " fill-opacity="1" fill-rule="nonzero"/><path fill="#336bdf" d="M 154.144531 166.359375 C 145.753906 166.359375 138.929688 173.207031 138.929688 181.625 C 138.929688 190.039062 145.753906 196.886719 154.144531 196.886719 C 162.535156 196.886719 169.359375 190.039062 169.359375 181.625 C 169.359375 173.207031 162.535156 166.359375 154.144531 166.359375 Z M 154.144531 197.753906 C 145.277344 197.753906 138.066406 190.519531 138.066406 181.625 C 138.066406 172.726562 145.277344 165.492188 154.144531 165.492188 C 163.011719 165.492188 170.222656 172.726562 170.222656 181.625 C 170.222656 190.519531 163.011719 197.753906 154.144531 197.753906 " fill-opacity="1" fill-rule="nonzero"/><path fill="#f9fdfd" d="M 151.304688 175.960938 C 149.09375 178.773438 146 180.023438 144.398438 178.753906 C 142.792969 177.484375 143.292969 174.175781 145.503906 171.363281 C 147.71875 168.550781 150.8125 167.300781 152.414062 168.570312 C 154.015625 169.839844 153.519531 173.148438 151.304688 175.960938 " fill-opacity="1" fill-rule="nonzero"/><path fill="#f9fdfd" d="M 143.621094 182.171875 C 142.957031 183.195312 141.851562 183.65625 141.15625 183.203125 C 140.457031 182.746094 140.429688 181.546875 141.09375 180.519531 C 141.761719 179.492188 142.867188 179.03125 143.5625 179.488281 C 144.261719 179.945312 144.285156 181.144531 143.621094 182.171875 " fill-opacity="1" fill-rule="nonzero"/><path fill="#adeef7" d="M 241.070312 182.59375 C 241.070312 189.632812 235.382812 195.335938 228.367188 195.335938 C 221.355469 195.335938 215.667969 189.632812 215.667969 182.59375 C 215.667969 175.554688 221.355469 169.851562 228.367188 169.851562 C 235.382812 169.851562 241.070312 175.554688 241.070312 182.59375 " fill-opacity="1" fill-rule="nonzero"/><path fill="#336bdf" d="M 228.367188 170.285156 C 221.605469 170.285156 216.097656 175.804688 216.097656 182.59375 C 216.097656 189.382812 221.605469 194.90625 228.367188 194.90625 C 235.136719 194.90625 240.640625 189.382812 240.640625 182.59375 C 240.640625 175.804688 235.136719 170.285156 228.367188 170.285156 Z M 228.367188 195.769531 C 221.128906 195.769531 215.234375 189.859375 215.234375 182.59375 C 215.234375 175.328125 221.128906 169.417969 228.367188 169.417969 C 235.613281 169.417969 241.503906 175.328125 241.503906 182.59375 C 241.503906 189.859375 235.613281 195.769531 228.367188 195.769531 " fill-opacity="1" fill-rule="nonzero"/><path fill="#f9fdfd" d="M 226.066406 177.996094 C 224.269531 180.28125 221.757812 181.296875 220.457031 180.265625 C 219.15625 179.234375 219.558594 176.546875 221.355469 174.265625 C 223.152344 171.980469 225.664062 170.964844 226.964844 171.996094 C 228.265625 173.027344 227.863281 175.714844 226.066406 177.996094 " fill-opacity="1" fill-rule="nonzero"/><path fill="#f9fdfd" d="M 219.828125 183.039062 C 219.285156 183.871094 218.390625 184.246094 217.824219 183.875 C 217.257812 183.503906 217.234375 182.53125 217.777344 181.699219 C 218.316406 180.867188 219.214844 180.492188 219.78125 180.859375 C 220.347656 181.230469 220.367188 182.207031 219.828125 183.039062 " fill-opacity="1" fill-rule="nonzero"/><path fill="#adeef7" d="M 143.832031 190.511719 C 143.832031 196.753906 138.789062 201.816406 132.566406 201.816406 C 126.34375 201.816406 121.300781 196.753906 121.300781 190.511719 C 121.300781 184.269531 126.34375 179.207031 132.566406 179.207031 C 138.789062 179.207031 143.832031 184.269531 143.832031 190.511719 " fill-opacity="1" fill-rule="nonzero"/><path fill="#336bdf" d="M 132.566406 179.640625 C 126.59375 179.640625 121.730469 184.515625 121.730469 190.511719 C 121.730469 196.503906 126.59375 201.382812 132.566406 201.382812 C 138.542969 201.382812 143.402344 196.503906 143.402344 190.511719 C 143.402344 184.515625 138.542969 179.640625 132.566406 179.640625 Z M 132.566406 202.25 C 126.113281 202.25 120.867188 196.984375 120.867188 190.511719 C 120.867188 184.039062 126.113281 178.773438 132.566406 178.773438 C 139.019531 178.773438 144.265625 184.039062 144.265625 190.511719 C 144.265625 196.984375 139.019531 202.25 132.566406 202.25 " fill-opacity="1" fill-rule="nonzero"/><path fill="#f9fdfd" d="M 124.222656 188.976562 C 123.953125 189.816406 123.410156 190.390625 123.011719 190.261719 C 122.609375 190.132812 122.507812 189.347656 122.777344 188.507812 C 123.046875 187.671875 123.589844 187.09375 123.988281 187.226562 C 124.386719 187.355469 124.492188 188.136719 124.222656 188.976562 " fill-opacity="1" fill-rule="nonzero"/><path fill="#f9fdfd" d="M 127.777344 184.375 C 126.203125 185.519531 124.640625 186.050781 124.289062 185.5625 C 123.9375 185.074219 124.929688 183.75 126.507812 182.609375 C 128.085938 181.46875 129.648438 180.9375 129.996094 181.421875 C 130.347656 181.910156 129.355469 183.234375 127.777344 184.375 " fill-opacity="1" fill-rule="nonzero"/><path fill="#adeef7" d="M 149.058594 196.042969 C 149.058594 200.652344 145.332031 204.386719 140.738281 204.386719 C 136.144531 204.386719 132.421875 200.652344 132.421875 196.042969 C 132.421875 191.433594 136.144531 187.695312 140.738281 187.695312 C 145.332031 187.695312 149.058594 191.433594 149.058594 196.042969 " fill-opacity="1" fill-rule="nonzero"/><path fill="#336bdf" d="M 140.738281 188.132812 C 136.390625 188.132812 132.851562 191.679688 132.851562 196.042969 C 132.851562 200.40625 136.390625 203.953125 140.738281 203.953125 C 145.085938 203.953125 148.625 200.40625 148.625 196.042969 C 148.625 191.679688 145.085938 188.132812 140.738281 188.132812 Z M 140.738281 204.820312 C 135.914062 204.820312 131.988281 200.882812 131.988281 196.042969 C 131.988281 191.203125 135.914062 187.265625 140.738281 187.265625 C 145.5625 187.265625 149.488281 191.203125 149.488281 196.042969 C 149.488281 200.882812 145.5625 204.820312 140.738281 204.820312 " fill-opacity="1" fill-rule="nonzero"/><path fill="#f9fdfd" d="M 134.578125 194.910156 C 134.378906 195.53125 133.980469 195.953125 133.683594 195.859375 C 133.390625 195.761719 133.3125 195.183594 133.511719 194.566406 C 133.710938 193.945312 134.109375 193.519531 134.40625 193.617188 C 134.699219 193.710938 134.777344 194.292969 134.578125 194.910156 " fill-opacity="1" fill-rule="nonzero"/><path fill="#f9fdfd" d="M 137.203125 191.511719 C 136.039062 192.355469 134.886719 192.746094 134.628906 192.386719 C 134.371094 192.027344 135.101562 191.054688 136.265625 190.210938 C 137.429688 189.367188 138.582031 188.972656 138.84375 189.335938 C 139.101562 189.695312 138.367188 190.667969 137.203125 191.511719 " fill-opacity="1" fill-rule="nonzero"/><path fill="#adeef7" d="M 229.980469 206.261719 C 229.980469 209.371094 227.46875 211.890625 224.371094 211.890625 C 221.273438 211.890625 218.761719 209.371094 218.761719 206.261719 C 218.761719 203.152344 221.273438 200.632812 224.371094 200.632812 C 227.46875 200.632812 229.980469 203.152344 229.980469 206.261719 " fill-opacity="1" fill-rule="nonzero"/><path fill="#336bdf" d="M 224.371094 201.066406 C 221.515625 201.066406 219.191406 203.398438 219.191406 206.261719 C 219.191406 209.125 221.515625 211.457031 224.371094 211.457031 C 227.226562 211.457031 229.546875 209.125 229.546875 206.261719 C 229.546875 203.398438 227.226562 201.066406 224.371094 201.066406 Z M 224.371094 212.324219 C 221.039062 212.324219 218.328125 209.605469 218.328125 206.261719 C 218.328125 202.917969 221.039062 200.199219 224.371094 200.199219 C 227.703125 200.199219 230.414062 202.917969 230.414062 206.261719 C 230.414062 209.605469 227.703125 212.324219 224.371094 212.324219 " fill-opacity="1" fill-rule="nonzero"/><path fill="#f9fdfd" d="M 220.214844 205.496094 C 220.082031 205.914062 219.8125 206.199219 219.613281 206.136719 C 219.414062 206.074219 219.363281 205.683594 219.496094 205.265625 C 219.628906 204.847656 219.898438 204.558594 220.097656 204.625 C 220.296875 204.6875 220.351562 205.078125 220.214844 205.496094 " fill-opacity="1" fill-rule="nonzero"/><path fill="#f9fdfd" d="M 221.988281 203.207031 C 221.203125 203.773438 220.425781 204.039062 220.25 203.796875 C 220.074219 203.554688 220.570312 202.894531 221.355469 202.328125 C 222.140625 201.757812 222.917969 201.492188 223.09375 201.734375 C 223.265625 201.976562 222.773438 202.636719 221.988281 203.207031 " fill-opacity="1" fill-rule="nonzero"/><path fill="#adeef7" d="M 258.746094 194.714844 C 258.746094 198.457031 255.726562 201.488281 251.996094 201.488281 C 248.269531 201.488281 245.246094 198.457031 245.246094 194.714844 C 245.246094 190.972656 248.269531 187.941406 251.996094 187.941406 C 255.726562 187.941406 258.746094 190.972656 258.746094 194.714844 " fill-opacity="1" fill-rule="nonzero"/><path fill="#336bdf" d="M 251.996094 188.375 C 248.511719 188.375 245.679688 191.21875 245.679688 194.714844 C 245.679688 198.210938 248.511719 201.054688 251.996094 201.054688 C 255.480469 201.054688 258.316406 198.210938 258.316406 194.714844 C 258.316406 191.21875 255.480469 188.375 251.996094 188.375 Z M 251.996094 201.921875 C 248.035156 201.921875 244.8125 198.6875 244.8125 194.714844 C 244.8125 190.742188 248.035156 187.507812 251.996094 187.507812 C 255.957031 187.507812 259.179688 190.742188 259.179688 194.714844 C 259.179688 198.6875 255.957031 201.921875 251.996094 201.921875 " fill-opacity="1" fill-rule="nonzero"/><path fill="#f9fdfd" d="M 246.996094 193.796875 C 246.835938 194.296875 246.511719 194.644531 246.269531 194.566406 C 246.03125 194.488281 245.96875 194.019531 246.128906 193.515625 C 246.292969 193.011719 246.617188 192.667969 246.855469 192.746094 C 247.09375 192.824219 247.160156 193.292969 246.996094 193.796875 " fill-opacity="1" fill-rule="nonzero"/><path fill="#f9fdfd" d="M 249.128906 191.039062 C 248.183594 191.722656 247.246094 192.042969 247.035156 191.75 C 246.824219 191.457031 247.421875 190.664062 248.367188 189.980469 C 249.3125 189.296875 250.246094 188.976562 250.457031 189.269531 C 250.667969 189.5625 250.074219 190.351562 249.128906 191.039062 " fill-opacity="1" fill-rule="nonzero"/><path fill="#adeef7" d="M 240.175781 195.871094 C 240.175781 200.480469 236.449219 204.21875 231.855469 204.21875 C 227.261719 204.21875 223.539062 200.480469 223.539062 195.871094 C 223.539062 191.265625 227.261719 187.527344 231.855469 187.527344 C 236.449219 187.527344 240.175781 191.265625 240.175781 195.871094 " fill-opacity="1" fill-rule="nonzero"/><path fill="#336bdf" d="M 231.855469 187.960938 C 227.507812 187.960938 223.972656 191.511719 223.972656 195.871094 C 223.972656 200.234375 227.507812 203.785156 231.855469 203.785156 C 236.207031 203.785156 239.742188 200.234375 239.742188 195.871094 C 239.742188 191.511719 236.207031 187.960938 231.855469 187.960938 Z M 231.855469 204.652344 C 227.03125 204.652344 223.105469 200.714844 223.105469 195.871094 C 223.105469 191.03125 227.03125 187.09375 231.855469 187.09375 C 236.683594 187.09375 240.605469 191.03125 240.605469 195.871094 C 240.605469 200.714844 236.683594 204.652344 231.855469 204.652344 " fill-opacity="1" fill-rule="nonzero"/><path fill="#f9fdfd" d="M 225.695312 194.742188 C 225.496094 195.359375 225.097656 195.785156 224.800781 195.6875 C 224.507812 195.59375 224.429688 195.015625 224.628906 194.394531 C 224.828125 193.777344 225.226562 193.351562 225.523438 193.449219 C 225.816406 193.542969 225.894531 194.121094 225.695312 194.742188 " fill-opacity="1" fill-rule="nonzero"/><path fill="#f9fdfd" d="M 228.324219 191.34375 C 227.160156 192.1875 226.003906 192.578125 225.746094 192.21875 C 225.488281 191.859375 226.21875 190.882812 227.386719 190.039062 C 228.546875 189.195312 229.703125 188.804688 229.960938 189.164062 C 230.21875 189.523438 229.484375 190.5 228.324219 191.34375 " fill-opacity="1" fill-rule="nonzero"/><path fill="#adeef7" d="M 198.214844 198.109375 C 198.214844 201.515625 195.460938 204.277344 192.066406 204.277344 C 188.671875 204.277344 185.921875 201.515625 185.921875 198.109375 C 185.921875 194.703125 188.671875 191.941406 192.066406 191.941406 C 195.460938 191.941406 198.214844 194.703125 198.214844 198.109375 " fill-opacity="1" fill-rule="nonzero"/><path fill="#336bdf" d="M 192.066406 192.375 C 188.914062 192.375 186.351562 194.949219 186.351562 198.109375 C 186.351562 201.273438 188.914062 203.84375 192.066406 203.84375 C 195.21875 203.84375 197.78125 201.273438 197.78125 198.109375 C 197.78125 194.949219 195.21875 192.375 192.066406 192.375 Z M 192.066406 204.710938 C 188.4375 204.710938 185.488281 201.75 185.488281 198.109375 C 185.488281 194.46875 188.4375 191.507812 192.066406 191.507812 C 195.695312 191.507812 198.648438 194.46875 198.648438 198.109375 C 198.648438 201.75 195.695312 204.710938 192.066406 204.710938 " fill-opacity="1" fill-rule="nonzero"/><path fill="#adeef7" d="M 191.828125 183.847656 C 191.828125 191.726562 185.464844 198.109375 177.613281 198.109375 C 169.761719 198.109375 163.398438 191.726562 163.398438 183.847656 C 163.398438 175.972656 169.761719 169.585938 177.613281 169.585938 C 185.464844 169.585938 191.828125 175.972656 191.828125 183.847656 " fill-opacity="1" fill-rule="nonzero"/><path fill="#336bdf" d="M 177.613281 170.019531 C 170.015625 170.019531 163.832031 176.222656 163.832031 183.847656 C 163.832031 191.472656 170.015625 197.675781 177.613281 197.675781 C 185.214844 197.675781 191.398438 191.472656 191.398438 183.847656 C 191.398438 176.222656 185.214844 170.019531 177.613281 170.019531 Z M 177.613281 198.542969 C 169.539062 198.542969 162.96875 191.953125 162.96875 183.847656 C 162.96875 175.742188 169.539062 169.152344 177.613281 169.152344 C 185.691406 169.152344 192.261719 175.742188 192.261719 183.847656 C 192.261719 191.953125 185.691406 198.542969 177.613281 198.542969 " fill-opacity="1" fill-rule="nonzero"/><path fill="#f9fdfd" d="M 174.164062 177.890625 C 172.0625 179.265625 169.617188 179.242188 168.703125 177.835938 C 167.785156 176.429688 168.746094 174.171875 170.851562 172.796875 C 172.953125 171.417969 175.398438 171.441406 176.316406 172.851562 C 177.230469 174.257812 176.269531 176.511719 174.164062 177.890625 " fill-opacity="1" fill-rule="nonzero"/><path fill="#adeef7" d="M 228.917969 193.183594 C 228.917969 199.035156 224.191406 203.773438 218.359375 203.773438 C 212.53125 203.773438 207.804688 199.035156 207.804688 193.183594 C 207.804688 187.335938 212.53125 182.59375 218.359375 182.59375 C 224.191406 182.59375 228.917969 187.335938 228.917969 193.183594 " fill-opacity="1" fill-rule="nonzero"/><path fill="#336bdf" d="M 218.359375 183.027344 C 212.777344 183.027344 208.238281 187.585938 208.238281 193.183594 C 208.238281 198.785156 212.777344 203.339844 218.359375 203.339844 C 223.941406 203.339844 228.484375 198.785156 228.484375 193.183594 C 228.484375 187.585938 223.941406 183.027344 218.359375 183.027344 Z M 218.359375 204.207031 C 212.300781 204.207031 207.371094 199.261719 207.371094 193.183594 C 207.371094 187.105469 212.300781 182.160156 218.359375 182.160156 C 224.417969 182.160156 229.347656 187.105469 229.347656 193.183594 C 229.347656 199.261719 224.417969 204.207031 218.359375 204.207031 " fill-opacity="1" fill-rule="nonzero"/><path fill="#f9fdfd" d="M 215.800781 188.761719 C 214.238281 189.78125 212.421875 189.765625 211.742188 188.71875 C 211.0625 187.675781 211.777344 186 213.339844 184.976562 C 214.898438 183.957031 216.714844 183.972656 217.394531 185.019531 C 218.074219 186.0625 217.359375 187.738281 215.800781 188.761719 " fill-opacity="1" fill-rule="nonzero"/><path fill="#adeef7" d="M 154.355469 193.011719 C 154.355469 195.949219 151.984375 198.328125 149.058594 198.328125 C 146.128906 198.328125 143.757812 195.949219 143.757812 193.011719 C 143.757812 190.078125 146.128906 187.695312 149.058594 187.695312 C 151.984375 187.695312 154.355469 190.078125 154.355469 193.011719 " fill-opacity="1" fill-rule="nonzero"/><path fill="#336bdf" d="M 149.058594 188.132812 C 146.375 188.132812 144.191406 190.320312 144.191406 193.011719 C 144.191406 195.707031 146.375 197.894531 149.058594 197.894531 C 151.738281 197.894531 153.921875 195.707031 153.921875 193.011719 C 153.921875 190.320312 151.738281 188.132812 149.058594 188.132812 Z M 149.058594 198.761719 C 145.898438 198.761719 143.328125 196.183594 143.328125 193.011719 C 143.328125 189.84375 145.898438 187.265625 149.058594 187.265625 C 152.214844 187.265625 154.789062 189.84375 154.789062 193.011719 C 154.789062 196.183594 152.214844 198.761719 149.058594 198.761719 " fill-opacity="1" fill-rule="nonzero"/><path fill="#f9fdfd" d="M 145.132812 192.292969 C 145.003906 192.6875 144.75 192.957031 144.5625 192.894531 C 144.375 192.835938 144.324219 192.464844 144.453125 192.070312 C 144.578125 191.679688 144.835938 191.40625 145.023438 191.46875 C 145.210938 191.527344 145.257812 191.898438 145.132812 192.292969 " fill-opacity="1" fill-rule="nonzero"/><path fill="#f9fdfd" d="M 146.804688 190.128906 C 146.0625 190.664062 145.328125 190.914062 145.164062 190.6875 C 145 190.457031 145.464844 189.835938 146.207031 189.296875 C 146.949219 188.761719 147.683594 188.511719 147.847656 188.738281 C 148.015625 188.96875 147.546875 189.589844 146.804688 190.128906 " fill-opacity="1" fill-rule="nonzero"/><path fill="#adeef7" d="M 123.625 199.175781 C 123.625 202.109375 121.253906 204.492188 118.324219 204.492188 C 115.398438 204.492188 113.027344 202.109375 113.027344 199.175781 C 113.027344 196.238281 115.398438 193.859375 118.324219 193.859375 C 121.253906 193.859375 123.625 196.238281 123.625 199.175781 " fill-opacity="1" fill-rule="nonzero"/><g clip-path="url(#6e49c68760)"><path fill="#336bdf" d="M 118.324219 194.292969 C 115.644531 194.292969 113.460938 196.484375 113.460938 199.175781 C 113.460938 201.867188 115.644531 204.058594 118.324219 204.058594 C 121.011719 204.058594 123.191406 201.867188 123.191406 199.175781 C 123.191406 196.484375 121.011719 194.292969 118.324219 194.292969 Z M 118.324219 204.921875 C 115.167969 204.921875 112.59375 202.34375 112.59375 199.175781 C 112.59375 196.003906 115.167969 193.425781 118.324219 193.425781 C 121.488281 193.425781 124.058594 196.003906 124.058594 199.175781 C 124.058594 202.34375 121.488281 204.921875 118.324219 204.921875 " fill-opacity="1" fill-rule="nonzero"/></g><path fill="#f9fdfd" d="M 114.402344 198.453125 C 114.277344 198.847656 114.019531 199.117188 113.832031 199.058594 C 113.644531 198.996094 113.59375 198.628906 113.722656 198.234375 C 113.847656 197.839844 114.101562 197.566406 114.292969 197.628906 C 114.480469 197.691406 114.53125 198.058594 114.402344 198.453125 " fill-opacity="1" fill-rule="nonzero"/><path fill="#f9fdfd" d="M 116.074219 196.289062 C 115.332031 196.824219 114.597656 197.074219 114.433594 196.847656 C 114.269531 196.617188 114.734375 195.996094 115.476562 195.457031 C 116.21875 194.921875 116.953125 194.671875 117.117188 194.902344 C 117.285156 195.128906 116.816406 195.75 116.074219 196.289062 " fill-opacity="1" fill-rule="nonzero"/><path fill="#adeef7" d="M 249.839844 198.648438 C 249.839844 201.582031 247.464844 203.964844 244.539062 203.964844 C 241.613281 203.964844 239.242188 201.582031 239.242188 198.648438 C 239.242188 195.710938 241.613281 193.332031 244.539062 193.332031 C 247.464844 193.332031 249.839844 195.710938 249.839844 198.648438 " fill-opacity="1" fill-rule="nonzero"/><path fill="#336bdf" d="M 244.539062 193.761719 C 241.855469 193.761719 239.675781 195.953125 239.675781 198.644531 C 239.675781 201.339844 241.855469 203.527344 244.539062 203.527344 C 247.222656 203.527344 249.40625 201.339844 249.40625 198.644531 C 249.40625 195.953125 247.222656 193.761719 244.539062 193.761719 Z M 244.539062 204.398438 C 241.378906 204.398438 238.808594 201.816406 238.808594 198.644531 C 238.808594 195.476562 241.378906 192.898438 244.539062 192.898438 C 247.699219 192.898438 250.269531 195.476562 250.269531 198.644531 C 250.269531 201.816406 247.699219 204.398438 244.539062 204.398438 " fill-opacity="1" fill-rule="nonzero"/><path fill="#f9fdfd" d="M 240.617188 197.925781 C 240.488281 198.320312 240.234375 198.589844 240.046875 198.527344 C 239.859375 198.46875 239.808594 198.097656 239.9375 197.707031 C 240.0625 197.3125 240.316406 197.042969 240.503906 197.101562 C 240.691406 197.160156 240.742188 197.53125 240.617188 197.925781 " fill-opacity="1" fill-rule="nonzero"/><path fill="#f9fdfd" d="M 242.289062 195.761719 C 241.546875 196.300781 240.8125 196.546875 240.648438 196.320312 C 240.480469 196.089844 240.949219 195.46875 241.691406 194.929688 C 242.433594 194.394531 243.167969 194.144531 243.332031 194.375 C 243.496094 194.601562 243.03125 195.222656 242.289062 195.761719 " fill-opacity="1" fill-rule="nonzero"/><path fill="#adeef7" d="M 172.679688 167.863281 C 172.679688 170.195312 170.796875 172.082031 168.472656 172.082031 C 166.148438 172.082031 164.269531 170.195312 164.269531 167.863281 C 164.269531 165.535156 166.148438 163.644531 168.472656 163.644531 C 170.796875 163.644531 172.679688 165.535156 172.679688 167.863281 " fill-opacity="1" fill-rule="nonzero"/><path fill="#336bdf" d="M 168.472656 164.078125 C 166.394531 164.078125 164.699219 165.777344 164.699219 167.863281 C 164.699219 169.953125 166.394531 171.648438 168.472656 171.648438 C 170.554688 171.648438 172.246094 169.953125 172.246094 167.863281 C 172.246094 165.777344 170.554688 164.078125 168.472656 164.078125 Z M 168.472656 172.515625 C 165.914062 172.515625 163.835938 170.429688 163.835938 167.863281 C 163.835938 165.300781 165.914062 163.214844 168.472656 163.214844 C 171.03125 163.214844 173.109375 165.300781 173.109375 167.863281 C 173.109375 170.429688 171.03125 172.515625 168.472656 172.515625 " fill-opacity="1" fill-rule="nonzero"/><path fill="#adeef7" d="M 246.109375 190.222656 C 246.109375 192.015625 244.660156 193.46875 242.871094 193.46875 C 241.085938 193.46875 239.636719 192.015625 239.636719 190.222656 C 239.636719 188.429688 241.085938 186.976562 242.871094 186.976562 C 244.660156 186.976562 246.109375 188.429688 246.109375 190.222656 " fill-opacity="1" fill-rule="nonzero"/><path fill="#336bdf" d="M 242.871094 187.410156 C 241.324219 187.410156 240.066406 188.671875 240.066406 190.222656 C 240.066406 191.773438 241.324219 193.035156 242.871094 193.035156 C 244.417969 193.035156 245.675781 191.773438 245.675781 190.222656 C 245.675781 188.671875 244.417969 187.410156 242.871094 187.410156 Z M 242.871094 193.902344 C 240.847656 193.902344 239.203125 192.25 239.203125 190.222656 C 239.203125 188.195312 240.847656 186.542969 242.871094 186.542969 C 244.894531 186.542969 246.539062 188.195312 246.539062 190.222656 C 246.539062 192.25 244.894531 193.902344 242.871094 193.902344 " fill-opacity="1" fill-rule="nonzero"/><path fill="#adeef7" d="M 261.984375 200.527344 C 261.984375 202.320312 260.535156 203.773438 258.746094 203.773438 C 256.960938 203.773438 255.511719 202.320312 255.511719 200.527344 C 255.511719 198.734375 256.960938 197.28125 258.746094 197.28125 C 260.535156 197.28125 261.984375 198.734375 261.984375 200.527344 " fill-opacity="1" fill-rule="nonzero"/><g clip-path="url(#bb8a611a97)"><path fill="#336bdf" d="M 258.746094 197.714844 C 257.203125 197.714844 255.945312 198.976562 255.945312 200.527344 C 255.945312 202.078125 257.203125 203.339844 258.746094 203.339844 C 260.292969 203.339844 261.550781 202.078125 261.550781 200.527344 C 261.550781 198.976562 260.292969 197.714844 258.746094 197.714844 Z M 258.746094 204.207031 C 256.726562 204.207031 255.078125 202.558594 255.078125 200.527344 C 255.078125 198.5 256.726562 196.847656 258.746094 196.847656 C 260.769531 196.847656 262.417969 198.5 262.417969 200.527344 C 262.417969 202.558594 260.769531 204.207031 258.746094 204.207031 " fill-opacity="1" fill-rule="nonzero"/></g><path fill="#adeef7" d="M 183.542969 193.46875 C 183.542969 199.582031 178.601562 204.539062 172.507812 204.539062 C 166.414062 204.539062 161.472656 199.582031 161.472656 193.46875 C 161.472656 187.355469 166.414062 182.398438 172.507812 182.398438 C 178.601562 182.398438 183.542969 187.355469 183.542969 193.46875 " fill-opacity="1" fill-rule="nonzero"/><path fill="#336bdf" d="M 172.507812 182.832031 C 166.660156 182.832031 161.90625 187.605469 161.90625 193.46875 C 161.90625 199.335938 166.660156 204.105469 172.507812 204.105469 C 178.355469 204.105469 183.109375 199.335938 183.109375 193.46875 C 183.109375 187.605469 178.355469 182.832031 172.507812 182.832031 Z M 172.507812 204.972656 C 166.183594 204.972656 161.042969 199.8125 161.042969 193.46875 C 161.042969 187.125 166.183594 181.964844 172.507812 181.964844 C 178.832031 181.964844 183.972656 187.125 183.972656 193.46875 C 183.972656 199.8125 178.832031 204.972656 172.507812 204.972656 " fill-opacity="1" fill-rule="nonzero"/><path fill="#f9fdfd" d="M 164.335938 191.96875 C 164.074219 192.789062 163.542969 193.351562 163.152344 193.226562 C 162.757812 193.097656 162.65625 192.332031 162.917969 191.507812 C 163.183594 190.6875 163.714844 190.125 164.105469 190.25 C 164.5 190.378906 164.601562 191.144531 164.335938 191.96875 " fill-opacity="1" fill-rule="nonzero"/><path fill="#f9fdfd" d="M 167.820312 187.460938 C 166.273438 188.578125 164.746094 189.101562 164.402344 188.621094 C 164.058594 188.144531 165.03125 186.851562 166.574219 185.730469 C 168.117188 184.613281 169.648438 184.09375 169.992188 184.570312 C 170.335938 185.046875 169.363281 186.34375 167.820312 187.460938 " fill-opacity="1" fill-rule="nonzero"/><path fill="#adeef7" d="M 164.742188 200.46875 C 164.742188 205.222656 160.902344 209.078125 156.164062 209.078125 C 151.425781 209.078125 147.582031 205.222656 147.582031 200.46875 C 147.582031 195.714844 151.425781 191.859375 156.164062 191.859375 C 160.902344 191.859375 164.742188 195.714844 164.742188 200.46875 " fill-opacity="1" fill-rule="nonzero"/><path fill="#336bdf" d="M 156.164062 192.292969 C 151.671875 192.292969 148.015625 195.960938 148.015625 200.46875 C 148.015625 204.976562 151.671875 208.644531 156.164062 208.644531 C 160.65625 208.644531 164.3125 204.976562 164.3125 200.46875 C 164.3125 195.960938 160.65625 192.292969 156.164062 192.292969 Z M 156.164062 209.511719 C 151.195312 209.511719 147.152344 205.453125 147.152344 200.46875 C 147.152344 195.484375 151.195312 191.425781 156.164062 191.425781 C 161.132812 191.425781 165.175781 195.484375 165.175781 200.46875 C 165.175781 205.453125 161.132812 209.511719 156.164062 209.511719 " fill-opacity="1" fill-rule="nonzero"/><path fill="#f9fdfd" d="M 149.808594 199.300781 C 149.601562 199.941406 149.191406 200.378906 148.886719 200.277344 C 148.582031 200.179688 148.503906 199.582031 148.707031 198.945312 C 148.914062 198.304688 149.324219 197.867188 149.628906 197.96875 C 149.933594 198.066406 150.015625 198.664062 149.808594 199.300781 " fill-opacity="1" fill-rule="nonzero"/><path fill="#f9fdfd" d="M 152.515625 195.796875 C 151.316406 196.664062 150.125 197.070312 149.859375 196.699219 C 149.589844 196.328125 150.347656 195.324219 151.550781 194.453125 C 152.75 193.582031 153.941406 193.175781 154.207031 193.550781 C 154.472656 193.917969 153.71875 194.925781 152.515625 195.796875 " fill-opacity="1" fill-rule="nonzero"/><path fill="#adeef7" d="M 168.015625 203.054688 C 168.015625 204.484375 166.863281 205.644531 165.4375 205.644531 C 164.011719 205.644531 162.859375 204.484375 162.859375 203.054688 C 162.859375 201.625 164.011719 200.46875 165.4375 200.46875 C 166.863281 200.46875 168.015625 201.625 168.015625 203.054688 " fill-opacity="1" fill-rule="nonzero"/><path fill="#336bdf" d="M 165.4375 200.902344 C 164.253906 200.902344 163.289062 201.867188 163.289062 203.054688 C 163.289062 204.242188 164.253906 205.210938 165.4375 205.210938 C 166.621094 205.210938 167.582031 204.242188 167.582031 203.054688 C 167.582031 201.867188 166.621094 200.902344 165.4375 200.902344 Z M 165.4375 206.078125 C 163.777344 206.078125 162.425781 204.722656 162.425781 203.054688 C 162.425781 201.390625 163.777344 200.035156 165.4375 200.035156 C 167.097656 200.035156 168.449219 201.390625 168.449219 203.054688 C 168.449219 204.722656 167.097656 206.078125 165.4375 206.078125 " fill-opacity="1" fill-rule="nonzero"/><path fill="#adeef7" d="M 234.839844 206.9375 C 234.839844 208.367188 233.683594 209.527344 232.261719 209.527344 C 230.835938 209.527344 229.683594 208.367188 229.683594 206.9375 C 229.683594 205.507812 230.835938 204.351562 232.261719 204.351562 C 233.683594 204.351562 234.839844 205.507812 234.839844 206.9375 " fill-opacity="1" fill-rule="nonzero"/><path fill="#336bdf" d="M 232.261719 204.785156 C 231.078125 204.785156 230.113281 205.75 230.113281 206.9375 C 230.113281 208.125 231.078125 209.089844 232.261719 209.089844 C 233.445312 209.089844 234.410156 208.125 234.410156 206.9375 C 234.410156 205.75 233.445312 204.785156 232.261719 204.785156 Z M 232.261719 209.960938 C 230.601562 209.960938 229.25 208.605469 229.25 206.9375 C 229.25 205.273438 230.601562 203.917969 232.261719 203.917969 C 233.921875 203.917969 235.273438 205.273438 235.273438 206.9375 C 235.273438 208.605469 233.921875 209.960938 232.261719 209.960938 " fill-opacity="1" fill-rule="nonzero"/><path fill="#adeef7" d="M 241.191406 203.964844 C 241.191406 206.058594 239.496094 207.757812 237.40625 207.757812 C 235.316406 207.757812 233.621094 206.058594 233.621094 203.964844 C 233.621094 201.867188 235.316406 200.167969 237.40625 200.167969 C 239.496094 200.167969 241.191406 201.867188 241.191406 203.964844 " fill-opacity="1" fill-rule="nonzero"/><path fill="#336bdf" d="M 237.40625 200.597656 C 235.558594 200.597656 234.054688 202.109375 234.054688 203.960938 C 234.054688 205.816406 235.558594 207.328125 237.40625 207.328125 C 239.253906 207.328125 240.757812 205.816406 240.757812 203.960938 C 240.757812 202.109375 239.253906 200.597656 237.40625 200.597656 Z M 237.40625 208.191406 C 235.082031 208.191406 233.191406 206.296875 233.191406 203.960938 C 233.191406 201.628906 235.082031 199.734375 237.40625 199.734375 C 239.730469 199.734375 241.621094 201.628906 241.621094 203.960938 C 241.621094 206.296875 239.730469 208.191406 237.40625 208.191406 " fill-opacity="1" fill-rule="nonzero"/><path fill="#adeef7" d="M 200.792969 186.789062 C 200.792969 188.21875 199.640625 189.375 198.214844 189.375 C 196.792969 189.375 195.636719 188.21875 195.636719 186.789062 C 195.636719 185.359375 196.792969 184.203125 198.214844 184.203125 C 199.640625 184.203125 200.792969 185.359375 200.792969 186.789062 " fill-opacity="1" fill-rule="nonzero"/><path fill="#336bdf" d="M 198.214844 184.632812 C 197.03125 184.632812 196.066406 185.601562 196.066406 186.789062 C 196.066406 187.976562 197.03125 188.941406 198.214844 188.941406 C 199.398438 188.941406 200.359375 187.976562 200.359375 186.789062 C 200.359375 185.601562 199.398438 184.632812 198.214844 184.632812 Z M 198.214844 189.808594 C 196.554688 189.808594 195.203125 188.453125 195.203125 186.789062 C 195.203125 185.125 196.554688 183.769531 198.214844 183.769531 C 199.875 183.769531 201.226562 185.125 201.226562 186.789062 C 201.226562 188.453125 199.875 189.808594 198.214844 189.808594 " fill-opacity="1" fill-rule="nonzero"/><path fill="#adeef7" d="M 134.042969 176.621094 C 134.042969 178.046875 132.890625 179.207031 131.46875 179.207031 C 130.042969 179.207031 128.886719 178.046875 128.886719 176.621094 C 128.886719 175.191406 130.042969 174.03125 131.46875 174.03125 C 132.890625 174.03125 134.042969 175.191406 134.042969 176.621094 " fill-opacity="1" fill-rule="nonzero"/><path fill="#336bdf" d="M 131.46875 174.464844 C 130.28125 174.464844 129.320312 175.433594 129.320312 176.621094 C 129.320312 177.808594 130.28125 178.773438 131.46875 178.773438 C 132.648438 178.773438 133.613281 177.808594 133.613281 176.621094 C 133.613281 175.433594 132.648438 174.464844 131.46875 174.464844 Z M 131.46875 179.640625 C 129.804688 179.640625 128.457031 178.285156 128.457031 176.621094 C 128.457031 174.953125 129.804688 173.597656 131.46875 173.597656 C 133.125 173.597656 134.476562 174.953125 134.476562 176.621094 C 134.476562 178.285156 133.125 179.640625 131.46875 179.640625 " fill-opacity="1" fill-rule="nonzero"/><path fill="#adeef7" d="M 177.835938 166.917969 C 177.835938 168.347656 176.679688 169.507812 175.253906 169.507812 C 173.832031 169.507812 172.679688 168.347656 172.679688 166.917969 C 172.679688 165.492188 173.832031 164.332031 175.253906 164.332031 C 176.679688 164.332031 177.835938 165.492188 177.835938 166.917969 " fill-opacity="1" fill-rule="nonzero"/><path fill="#336bdf" d="M 175.253906 164.765625 C 174.074219 164.765625 173.109375 165.730469 173.109375 166.917969 C 173.109375 168.105469 174.074219 169.074219 175.253906 169.074219 C 176.4375 169.074219 177.402344 168.105469 177.402344 166.917969 C 177.402344 165.730469 176.4375 164.765625 175.253906 164.765625 Z M 175.253906 169.941406 C 173.597656 169.941406 172.246094 168.585938 172.246094 166.917969 C 172.246094 165.253906 173.597656 163.898438 175.253906 163.898438 C 176.914062 163.898438 178.265625 165.253906 178.265625 166.917969 C 178.265625 168.585938 176.914062 169.941406 175.253906 169.941406 " fill-opacity="1" fill-rule="nonzero"/><path fill="#adeef7" d="M 246.230469 184.207031 C 246.230469 185.636719 245.074219 186.796875 243.648438 186.796875 C 242.226562 186.796875 241.070312 185.636719 241.070312 184.207031 C 241.070312 182.78125 242.226562 181.621094 243.648438 181.621094 C 245.074219 181.621094 246.230469 182.78125 246.230469 184.207031 " fill-opacity="1" fill-rule="nonzero"/><path fill="#336bdf" d="M 243.648438 182.054688 C 242.464844 182.054688 241.503906 183.019531 241.503906 184.207031 C 241.503906 185.398438 242.464844 186.363281 243.648438 186.363281 C 244.835938 186.363281 245.796875 185.398438 245.796875 184.207031 C 245.796875 183.019531 244.835938 182.054688 243.648438 182.054688 Z M 243.648438 187.230469 C 241.988281 187.230469 240.640625 185.875 240.640625 184.207031 C 240.640625 182.542969 241.988281 181.1875 243.648438 181.1875 C 245.308594 181.1875 246.660156 182.542969 246.660156 184.207031 C 246.660156 185.875 245.308594 187.230469 243.648438 187.230469 " fill-opacity="1" fill-rule="nonzero"/><path fill="#adeef7" d="M 244.882812 179.207031 C 244.882812 180.320312 243.984375 181.226562 242.871094 181.226562 C 241.761719 181.226562 240.859375 180.320312 240.859375 179.207031 C 240.859375 178.089844 241.761719 177.1875 242.871094 177.1875 C 243.984375 177.1875 244.882812 178.089844 244.882812 179.207031 " fill-opacity="1" fill-rule="nonzero"/><path fill="#336bdf" d="M 242.871094 177.621094 C 242 177.621094 241.292969 178.332031 241.292969 179.207031 C 241.292969 180.082031 242 180.792969 242.871094 180.792969 C 243.742188 180.792969 244.453125 180.082031 244.453125 179.207031 C 244.453125 178.332031 243.742188 177.621094 242.871094 177.621094 Z M 242.871094 181.660156 C 241.523438 181.660156 240.429688 180.558594 240.429688 179.207031 C 240.429688 177.855469 241.523438 176.753906 242.871094 176.753906 C 244.21875 176.753906 245.316406 177.855469 245.316406 179.207031 C 245.316406 180.558594 244.21875 181.660156 242.871094 181.660156 " fill-opacity="1" fill-rule="nonzero"/><path fill="#adeef7" d="M 252.273438 203.507812 C 252.273438 204.621094 251.371094 205.527344 250.261719 205.527344 C 249.148438 205.527344 248.246094 204.621094 248.246094 203.507812 C 248.246094 202.394531 249.148438 201.488281 250.261719 201.488281 C 251.371094 201.488281 252.273438 202.394531 252.273438 203.507812 " fill-opacity="1" fill-rule="nonzero"/><path fill="#336bdf" d="M 250.261719 201.921875 C 249.386719 201.921875 248.679688 202.632812 248.679688 203.507812 C 248.679688 204.382812 249.386719 205.09375 250.261719 205.09375 C 251.132812 205.09375 251.839844 204.382812 251.839844 203.507812 C 251.839844 202.632812 251.132812 201.921875 250.261719 201.921875 Z M 250.261719 205.960938 C 248.910156 205.960938 247.816406 204.859375 247.816406 203.507812 C 247.816406 202.15625 248.910156 201.054688 250.261719 201.054688 C 251.609375 201.054688 252.703125 202.15625 252.703125 203.507812 C 252.703125 204.859375 251.609375 205.960938 250.261719 205.960938 " fill-opacity="1" fill-rule="nonzero"/><path fill="#adeef7" d="M 255.789062 202.996094 C 255.789062 203.832031 255.117188 204.507812 254.285156 204.507812 C 253.453125 204.507812 252.78125 203.832031 252.78125 202.996094 C 252.78125 202.164062 253.453125 201.488281 254.285156 201.488281 C 255.117188 201.488281 255.789062 202.164062 255.789062 202.996094 " fill-opacity="1" fill-rule="nonzero"/><path fill="#336bdf" d="M 254.285156 201.921875 C 253.695312 201.921875 253.210938 202.40625 253.210938 202.996094 C 253.210938 203.589844 253.695312 204.074219 254.285156 204.074219 C 254.875 204.074219 255.355469 203.589844 255.355469 202.996094 C 255.355469 202.40625 254.875 201.921875 254.285156 201.921875 Z M 254.285156 204.941406 C 253.21875 204.941406 252.347656 204.070312 252.347656 202.996094 C 252.347656 201.925781 253.21875 201.054688 254.285156 201.054688 C 255.351562 201.054688 256.222656 201.925781 256.222656 202.996094 C 256.222656 204.070312 255.351562 204.941406 254.285156 204.941406 " fill-opacity="1" fill-rule="nonzero"/><path fill="#adeef7" d="M 139.191406 177.121094 C 139.191406 178.550781 138.039062 179.707031 136.613281 179.707031 C 135.191406 179.707031 134.035156 178.550781 134.035156 177.121094 C 134.035156 175.691406 135.191406 174.53125 136.613281 174.53125 C 138.039062 174.53125 139.191406 175.691406 139.191406 177.121094 " fill-opacity="1" fill-rule="nonzero"/><path fill="#336bdf" d="M 136.613281 174.96875 C 135.429688 174.96875 134.46875 175.933594 134.46875 177.121094 C 134.46875 178.308594 135.429688 179.273438 136.613281 179.273438 C 137.796875 179.273438 138.761719 178.308594 138.761719 177.121094 C 138.761719 175.933594 137.796875 174.96875 136.613281 174.96875 Z M 136.613281 180.140625 C 134.953125 180.140625 133.605469 178.785156 133.605469 177.121094 C 133.605469 175.453125 134.953125 174.101562 136.613281 174.101562 C 138.273438 174.101562 139.625 175.453125 139.625 177.121094 C 139.625 178.785156 138.273438 180.140625 136.613281 180.140625 " fill-opacity="1" fill-rule="nonzero"/><path fill="#adeef7" d="M 181.265625 167.863281 C 181.265625 168.8125 180.496094 169.585938 179.550781 169.585938 C 178.601562 169.585938 177.835938 168.8125 177.835938 167.863281 C 177.835938 166.914062 178.601562 166.144531 179.550781 166.144531 C 180.496094 166.144531 181.265625 166.914062 181.265625 167.863281 " fill-opacity="1" fill-rule="nonzero"/><path fill="#336bdf" d="M 179.550781 166.578125 C 178.84375 166.578125 178.265625 167.15625 178.265625 167.863281 C 178.265625 168.574219 178.84375 169.152344 179.550781 169.152344 C 180.257812 169.152344 180.832031 168.574219 180.832031 167.863281 C 180.832031 167.15625 180.257812 166.578125 179.550781 166.578125 Z M 179.550781 170.019531 C 178.367188 170.019531 177.402344 169.050781 177.402344 167.863281 C 177.402344 166.675781 178.367188 165.710938 179.550781 165.710938 C 180.734375 165.710938 181.695312 166.675781 181.695312 167.863281 C 181.695312 169.050781 180.734375 170.019531 179.550781 170.019531 " fill-opacity="1" fill-rule="nonzero"/><path fill="#adeef7" d="M 128.859375 178.339844 C 128.859375 179.289062 128.089844 180.0625 127.144531 180.0625 C 126.195312 180.0625 125.429688 179.289062 125.429688 178.339844 C 125.429688 177.390625 126.195312 176.621094 127.144531 176.621094 C 128.089844 176.621094 128.859375 177.390625 128.859375 178.339844 " fill-opacity="1" fill-rule="nonzero"/><path fill="#336bdf" d="M 127.144531 177.054688 C 126.4375 177.054688 125.859375 177.628906 125.859375 178.339844 C 125.859375 179.050781 126.4375 179.628906 127.144531 179.628906 C 127.851562 179.628906 128.425781 179.050781 128.425781 178.339844 C 128.425781 177.628906 127.851562 177.054688 127.144531 177.054688 Z M 127.144531 180.492188 C 125.960938 180.492188 124.996094 179.527344 124.996094 178.339844 C 124.996094 177.152344 125.960938 176.1875 127.144531 176.1875 C 128.328125 176.1875 129.289062 177.152344 129.289062 178.339844 C 129.289062 179.527344 128.328125 180.492188 127.144531 180.492188 " fill-opacity="1" fill-rule="nonzero"/><path fill="#adeef7" d="M 185.765625 199.125 C 185.765625 200.074219 184.996094 200.84375 184.050781 200.84375 C 183.101562 200.84375 182.335938 200.074219 182.335938 199.125 C 182.335938 198.171875 183.101562 197.402344 184.050781 197.402344 C 184.996094 197.402344 185.765625 198.171875 185.765625 199.125 " fill-opacity="1" fill-rule="nonzero"/><path fill="#336bdf" d="M 184.050781 197.835938 C 183.34375 197.835938 182.769531 198.414062 182.769531 199.125 C 182.769531 199.832031 183.34375 200.410156 184.050781 200.410156 C 184.757812 200.410156 185.332031 199.832031 185.332031 199.125 C 185.332031 198.414062 184.757812 197.835938 184.050781 197.835938 Z M 184.050781 201.277344 C 182.867188 201.277344 181.902344 200.3125 181.902344 199.125 C 181.902344 197.933594 182.867188 196.96875 184.050781 196.96875 C 185.234375 196.96875 186.199219 197.933594 186.199219 199.125 C 186.199219 200.3125 185.234375 201.277344 184.050781 201.277344 " fill-opacity="1" fill-rule="nonzero"/><path fill="#adeef7" d="M 126.980469 201.816406 C 126.980469 202.765625 126.210938 203.535156 125.261719 203.535156 C 124.316406 203.535156 123.550781 202.765625 123.550781 201.816406 C 123.550781 200.863281 124.316406 200.09375 125.261719 200.09375 C 126.210938 200.09375 126.980469 200.863281 126.980469 201.816406 " fill-opacity="1" fill-rule="nonzero"/><path fill="#336bdf" d="M 125.261719 200.527344 C 124.554688 200.527344 123.980469 201.105469 123.980469 201.816406 C 123.980469 202.523438 124.554688 203.101562 125.261719 203.101562 C 125.972656 203.101562 126.546875 202.523438 126.546875 201.816406 C 126.546875 201.105469 125.972656 200.527344 125.261719 200.527344 Z M 125.261719 203.96875 C 124.078125 203.96875 123.117188 203.003906 123.117188 201.816406 C 123.117188 200.628906 124.078125 199.660156 125.261719 199.660156 C 126.449219 199.660156 127.410156 200.628906 127.410156 201.816406 C 127.410156 203.003906 126.449219 203.96875 125.261719 203.96875 " fill-opacity="1" fill-rule="nonzero"/><path fill="#adeef7" d="M 121.238281 190.511719 C 121.238281 192.144531 119.917969 193.46875 118.289062 193.46875 C 116.660156 193.46875 115.339844 192.144531 115.339844 190.511719 C 115.339844 188.878906 116.660156 187.550781 118.289062 187.550781 C 119.917969 187.550781 121.238281 188.878906 121.238281 190.511719 " fill-opacity="1" fill-rule="nonzero"/><path fill="#336bdf" d="M 118.289062 187.984375 C 116.902344 187.984375 115.773438 189.117188 115.773438 190.511719 C 115.773438 191.902344 116.902344 193.035156 118.289062 193.035156 C 119.675781 193.035156 120.804688 191.902344 120.804688 190.511719 C 120.804688 189.117188 119.675781 187.984375 118.289062 187.984375 Z M 118.289062 193.902344 C 116.425781 193.902344 114.90625 192.382812 114.90625 190.511719 C 114.90625 188.640625 116.425781 187.117188 118.289062 187.117188 C 120.152344 187.117188 121.667969 188.640625 121.667969 190.511719 C 121.667969 192.382812 120.152344 193.902344 118.289062 193.902344 " fill-opacity="1" fill-rule="nonzero"/><path fill="#adeef7" d="M 210.519531 184.683594 C 210.519531 186.316406 209.199219 187.640625 207.570312 187.640625 C 205.941406 187.640625 204.621094 186.316406 204.621094 184.683594 C 204.621094 183.046875 205.941406 181.722656 207.570312 181.722656 C 209.199219 181.722656 210.519531 183.046875 210.519531 184.683594 " fill-opacity="1" fill-rule="nonzero"/><path fill="#336bdf" d="M 207.570312 182.15625 C 206.179688 182.15625 205.050781 183.289062 205.050781 184.683594 C 205.050781 186.074219 206.179688 187.207031 207.570312 187.207031 C 208.957031 187.207031 210.085938 186.074219 210.085938 184.683594 C 210.085938 183.289062 208.957031 182.15625 207.570312 182.15625 Z M 207.570312 188.074219 C 205.703125 188.074219 204.1875 186.550781 204.1875 184.683594 C 204.1875 182.8125 205.703125 181.289062 207.570312 181.289062 C 209.433594 181.289062 210.953125 182.8125 210.953125 184.683594 C 210.953125 186.550781 209.433594 188.074219 207.570312 188.074219 " fill-opacity="1" fill-rule="nonzero"/><path fill="#adeef7" d="M 143.757812 206.261719 C 143.757812 207.210938 142.988281 207.980469 142.042969 207.980469 C 141.097656 207.980469 140.328125 207.210938 140.328125 206.261719 C 140.328125 205.3125 141.097656 204.539062 142.042969 204.539062 C 142.988281 204.539062 143.757812 205.3125 143.757812 206.261719 " fill-opacity="1" fill-rule="nonzero"/><path fill="#336bdf" d="M 142.042969 204.972656 C 141.335938 204.972656 140.761719 205.550781 140.761719 206.261719 C 140.761719 206.96875 141.335938 207.546875 142.042969 207.546875 C 142.75 207.546875 143.328125 206.96875 143.328125 206.261719 C 143.328125 205.550781 142.75 204.972656 142.042969 204.972656 Z M 142.042969 208.414062 C 140.859375 208.414062 139.898438 207.449219 139.898438 206.261719 C 139.898438 205.074219 140.859375 204.105469 142.042969 204.105469 C 143.226562 204.105469 144.191406 205.074219 144.191406 206.261719 C 144.191406 207.449219 143.226562 208.414062 142.042969 208.414062 " fill-opacity="1" fill-rule="nonzero"/><path fill="#adeef7" d="M 146.507812 208.660156 C 146.507812 209.609375 145.742188 210.378906 144.792969 210.378906 C 143.84375 210.378906 143.078125 209.609375 143.078125 208.660156 C 143.078125 207.707031 143.84375 206.9375 144.792969 206.9375 C 145.742188 206.9375 146.507812 207.707031 146.507812 208.660156 " fill-opacity="1" fill-rule="nonzero"/><path fill="#336bdf" d="M 144.792969 207.371094 C 144.085938 207.371094 143.507812 207.949219 143.507812 208.660156 C 143.507812 209.367188 144.085938 209.945312 144.792969 209.945312 C 145.5 209.945312 146.074219 209.367188 146.074219 208.660156 C 146.074219 207.949219 145.5 207.371094 144.792969 207.371094 Z M 144.792969 210.8125 C 143.609375 210.8125 142.644531 209.847656 142.644531 208.660156 C 142.644531 207.472656 143.609375 206.503906 144.792969 206.503906 C 145.976562 206.503906 146.941406 207.472656 146.941406 208.660156 C 146.941406 209.847656 145.976562 210.8125 144.792969 210.8125 " fill-opacity="1" fill-rule="nonzero"/><path fill="#adeef7" d="M 154.78125 210.378906 C 154.78125 211.328125 154.011719 212.101562 153.066406 212.101562 C 152.121094 212.101562 151.351562 211.328125 151.351562 210.378906 C 151.351562 209.429688 152.121094 208.660156 153.066406 208.660156 C 154.011719 208.660156 154.78125 209.429688 154.78125 210.378906 " fill-opacity="1" fill-rule="nonzero"/><path fill="#336bdf" d="M 153.066406 209.09375 C 152.359375 209.09375 151.785156 209.671875 151.785156 210.378906 C 151.785156 211.089844 152.359375 211.664062 153.066406 211.664062 C 153.773438 211.664062 154.347656 211.089844 154.347656 210.378906 C 154.347656 209.671875 153.773438 209.09375 153.066406 209.09375 Z M 153.066406 212.535156 C 151.882812 212.535156 150.917969 211.566406 150.917969 210.378906 C 150.917969 209.191406 151.882812 208.226562 153.066406 208.226562 C 154.25 208.226562 155.214844 209.191406 155.214844 210.378906 C 155.214844 211.566406 154.25 212.535156 153.066406 212.535156 " fill-opacity="1" fill-rule="nonzero"/><path fill="#adeef7" d="M 151.351562 209.078125 C 151.351562 210.351562 150.324219 211.378906 149.058594 211.378906 C 147.789062 211.378906 146.761719 210.351562 146.761719 209.078125 C 146.761719 207.804688 147.789062 206.777344 149.058594 206.777344 C 150.324219 206.777344 151.351562 207.804688 151.351562 209.078125 " fill-opacity="1" fill-rule="nonzero"/><path fill="#336bdf" d="M 149.058594 207.210938 C 148.03125 207.210938 147.195312 208.046875 147.195312 209.078125 C 147.195312 210.109375 148.03125 210.945312 149.058594 210.945312 C 150.082031 210.945312 150.917969 210.109375 150.917969 209.078125 C 150.917969 208.046875 150.082031 207.210938 149.058594 207.210938 Z M 149.058594 211.8125 C 147.554688 211.8125 146.332031 210.585938 146.332031 209.078125 C 146.332031 207.570312 147.554688 206.339844 149.058594 206.339844 C 150.558594 206.339844 151.785156 207.570312 151.785156 209.078125 C 151.785156 210.585938 150.558594 211.8125 149.058594 211.8125 " fill-opacity="1" fill-rule="nonzero"/><path fill="#adeef7" d="M 196.757812 190.769531 C 196.757812 191.722656 195.988281 192.492188 195.042969 192.492188 C 194.09375 192.492188 193.328125 191.722656 193.328125 190.769531 C 193.328125 189.820312 194.09375 189.050781 195.042969 189.050781 C 195.988281 189.050781 196.757812 189.820312 196.757812 190.769531 " fill-opacity="1" fill-rule="nonzero"/><path fill="#336bdf" d="M 195.042969 189.484375 C 194.335938 189.484375 193.757812 190.0625 193.757812 190.769531 C 193.757812 191.480469 194.335938 192.058594 195.042969 192.058594 C 195.75 192.058594 196.324219 191.480469 196.324219 190.769531 C 196.324219 190.0625 195.75 189.484375 195.042969 189.484375 Z M 195.042969 192.925781 C 193.859375 192.925781 192.894531 191.957031 192.894531 190.769531 C 192.894531 189.582031 193.859375 188.617188 195.042969 188.617188 C 196.226562 188.617188 197.191406 189.582031 197.191406 190.769531 C 197.191406 191.957031 196.226562 192.925781 195.042969 192.925781 " fill-opacity="1" fill-rule="nonzero"/><path fill="#adeef7" d="M 195.042969 187.328125 C 195.042969 188.28125 194.273438 189.050781 193.328125 189.050781 C 192.378906 189.050781 191.613281 188.28125 191.613281 187.328125 C 191.613281 186.378906 192.378906 185.609375 193.328125 185.609375 C 194.273438 185.609375 195.042969 186.378906 195.042969 187.328125 " fill-opacity="1" fill-rule="nonzero"/><path fill="#336bdf" d="M 193.328125 186.042969 C 192.621094 186.042969 192.042969 186.621094 192.042969 187.328125 C 192.042969 188.039062 192.621094 188.617188 193.328125 188.617188 C 194.035156 188.617188 194.609375 188.039062 194.609375 187.328125 C 194.609375 186.621094 194.035156 186.042969 193.328125 186.042969 Z M 193.328125 189.484375 C 192.144531 189.484375 191.179688 188.515625 191.179688 187.328125 C 191.179688 186.140625 192.144531 185.175781 193.328125 185.175781 C 194.511719 185.175781 195.472656 186.140625 195.472656 187.328125 C 195.472656 188.515625 194.511719 189.484375 193.328125 189.484375 " fill-opacity="1" fill-rule="nonzero"/><path fill="#adeef7" d="M 213.503906 182.59375 C 213.503906 183.542969 212.734375 184.316406 211.789062 184.316406 C 210.839844 184.316406 210.074219 183.542969 210.074219 182.59375 C 210.074219 181.644531 210.839844 180.871094 211.789062 180.871094 C 212.734375 180.871094 213.503906 181.644531 213.503906 182.59375 " fill-opacity="1" fill-rule="nonzero"/><path fill="#336bdf" d="M 211.789062 181.308594 C 211.082031 181.308594 210.503906 181.886719 210.503906 182.59375 C 210.503906 183.304688 211.082031 183.882812 211.789062 183.882812 C 212.496094 183.882812 213.070312 183.304688 213.070312 182.59375 C 213.070312 181.886719 212.496094 181.308594 211.789062 181.308594 Z M 211.789062 184.75 C 210.605469 184.75 209.640625 183.78125 209.640625 182.59375 C 209.640625 181.40625 210.605469 180.441406 211.789062 180.441406 C 212.972656 180.441406 213.933594 181.40625 213.933594 182.59375 C 213.933594 183.78125 212.972656 184.75 211.789062 184.75 " fill-opacity="1" fill-rule="nonzero"/><path fill="#336bdf" d="M 125.683594 180.367188 C 125.683594 181.507812 124.761719 182.433594 123.625 182.433594 C 122.488281 182.433594 121.566406 181.507812 121.566406 180.367188 C 121.566406 179.230469 122.488281 178.304688 123.625 178.304688 C 124.761719 178.304688 125.683594 179.230469 125.683594 180.367188 " fill-opacity="1" fill-rule="nonzero"/><path fill="#adeef7" d="M 212.589844 196.042969 C 212.589844 200.730469 208.800781 204.53125 204.128906 204.53125 C 199.453125 204.53125 195.664062 200.730469 195.664062 196.042969 C 195.664062 191.351562 199.453125 187.550781 204.128906 187.550781 C 208.800781 187.550781 212.589844 191.351562 212.589844 196.042969 " fill-opacity="1" fill-rule="nonzero"/><path fill="#336bdf" d="M 204.128906 187.984375 C 199.699219 187.984375 196.097656 191.601562 196.097656 196.042969 C 196.097656 200.484375 199.699219 204.101562 204.128906 204.101562 C 208.554688 204.101562 212.15625 200.484375 212.15625 196.042969 C 212.15625 191.601562 208.554688 187.984375 204.128906 187.984375 Z M 204.128906 204.964844 C 199.222656 204.964844 195.234375 200.960938 195.234375 196.042969 C 195.234375 191.121094 199.222656 187.117188 204.128906 187.117188 C 209.03125 187.117188 213.023438 191.121094 213.023438 196.042969 C 213.023438 200.960938 209.03125 204.964844 204.128906 204.964844 " fill-opacity="1" fill-rule="nonzero"/><path fill="#f9fdfd" d="M 197.859375 194.890625 C 197.660156 195.519531 197.25 195.953125 196.949219 195.855469 C 196.652344 195.757812 196.570312 195.167969 196.773438 194.539062 C 196.976562 193.910156 197.382812 193.476562 197.683594 193.574219 C 197.984375 193.671875 198.0625 194.261719 197.859375 194.890625 " fill-opacity="1" fill-rule="nonzero"/><path fill="#f9fdfd" d="M 200.53125 191.433594 C 199.347656 192.292969 198.171875 192.691406 197.910156 192.324219 C 197.644531 191.957031 198.394531 190.964844 199.578125 190.109375 C 200.761719 189.25 201.933594 188.851562 202.199219 189.21875 C 202.460938 189.582031 201.714844 190.574219 200.53125 191.433594 " fill-opacity="1" fill-rule="nonzero"/><path fill="#336bdf" d="M 193.328125 190.296875 C 193.328125 191.09375 192.683594 191.738281 191.890625 191.738281 C 191.097656 191.738281 190.453125 191.09375 190.453125 190.296875 C 190.453125 189.503906 191.097656 188.855469 191.890625 188.855469 C 192.683594 188.855469 193.328125 189.503906 193.328125 190.296875 " fill-opacity="1" fill-rule="nonzero"/><path fill="#336bdf" d="M 216.003906 181.625 C 216.003906 182.417969 215.363281 183.0625 214.570312 183.0625 C 213.777344 183.0625 213.132812 182.417969 213.132812 181.625 C 213.132812 180.828125 213.777344 180.179688 214.570312 180.179688 C 215.363281 180.179688 216.003906 180.828125 216.003906 181.625 " fill-opacity="1" fill-rule="nonzero"/><path fill="#336bdf" d="M 242.507812 176.132812 C 242.507812 176.925781 241.863281 177.574219 241.070312 177.574219 C 240.277344 177.574219 239.636719 176.925781 239.636719 176.132812 C 239.636719 175.335938 240.277344 174.691406 241.070312 174.691406 C 241.863281 174.691406 242.507812 175.335938 242.507812 176.132812 " fill-opacity="1" fill-rule="nonzero"/><path fill="#adeef7" d="M 219.570312 204.277344 C 219.570312 208.070312 216.503906 211.144531 212.726562 211.144531 C 208.945312 211.144531 205.882812 208.070312 205.882812 204.277344 C 205.882812 200.488281 208.945312 197.414062 212.726562 197.414062 C 216.503906 197.414062 219.570312 200.488281 219.570312 204.277344 " fill-opacity="1" fill-rule="nonzero"/><path fill="#336bdf" d="M 212.726562 197.847656 C 209.191406 197.847656 206.316406 200.730469 206.316406 204.277344 C 206.316406 207.824219 209.191406 210.710938 212.726562 210.710938 C 216.261719 210.710938 219.136719 207.824219 219.136719 204.277344 C 219.136719 200.730469 216.261719 197.847656 212.726562 197.847656 Z M 212.726562 211.574219 C 208.714844 211.574219 205.449219 208.304688 205.449219 204.277344 C 205.449219 200.253906 208.714844 196.980469 212.726562 196.980469 C 216.738281 196.980469 220 200.253906 220 204.277344 C 220 208.304688 216.738281 211.574219 212.726562 211.574219 " fill-opacity="1" fill-rule="nonzero"/><path fill="#f9fdfd" d="M 211.066406 201.410156 C 210.054688 202.070312 208.875 202.0625 208.4375 201.382812 C 207.996094 200.707031 208.457031 199.621094 209.46875 198.957031 C 210.484375 198.292969 211.660156 198.304688 212.101562 198.984375 C 212.539062 199.660156 212.078125 200.746094 211.066406 201.410156 " fill-opacity="1" fill-rule="nonzero"/><g fill="#ffba08" fill-opacity="1"><g transform="translate(147.44384, 154.151929)"><g><path d="M 13.640625 -40.578125 C 13.960938 -39.078125 14.289062 -37.597656 14.625 -36.140625 C 14.96875 -34.679688 15.289062 -33.203125 15.59375 -31.703125 L 5.78125 -28.3125 L 6.640625 -25.34375 L 15.28125 -27.84375 L 16.921875 -20.421875 L 8.765625 -17.84375 L 12.828125 -3.953125 L 1.03125 -0.296875 L -7.984375 -34.328125 Z M 13.640625 -40.578125 "/></g></g></g><g fill="#ffba08" fill-opacity="1"><g transform="translate(169.31519, 148.110212)"><g><path d="M 10.65625 -35.71875 L 11.5625 -2.390625 L 1.359375 -0.75 L -2.203125 -33.640625 Z M 10.65625 -35.71875 "/></g></g></g><g fill="#ffba08" fill-opacity="1"><g transform="translate(182.444762, 146.136607)"><g><path d="M 25.296875 -25.203125 L 13.140625 -10.875 L 23.90625 -10.15625 L 23.09375 0.140625 L 1.296875 -0.40625 L 0.953125 -10.03125 L 14.75 -25.734375 L 3.078125 -25.625 L 3.609375 -35.4375 L 25.4375 -33.984375 Z M 25.296875 -25.203125 "/></g></g></g><g fill="#ffba08" fill-opacity="1"><g transform="translate(204.754876, 147.393235)"><g><path d="M 30.109375 -19.203125 L 15.171875 -7.796875 L 25.53125 -4.8125 L 22.515625 5.078125 L 1.359375 -0.125 L 3.078125 -9.59375 L 19.921875 -21.984375 L 8.484375 -24.390625 L 11.109375 -33.84375 L 32.125 -27.765625 Z M 30.109375 -19.203125 "/></g></g></g><path stroke-linecap="butt" transform="matrix(0.720518, -0.208216, 0.208216, 0.720518, 136.408371, 115.964486)" fill="none" stroke-linejoin="miter" d="M 32.48623 6.065072 C 32.352734 8.102909 32.235029 10.123624 32.124554 12.11932 C 32.019082 14.116462 31.874914 16.134951 31.703501 18.172673 L 17.8994 18.889358 L 17.902051 22.98874 L 29.877509 22.990543 L 29.227496 33.081767 L 17.835555 33.405811 L 17.899732 52.67592 L 1.432574 53.002532 L 2.472806 6.066062 Z M 32.48623 6.065072 " stroke="#336dbf" stroke-width="4.583335" stroke-opacity="1" stroke-miterlimit="4"/><path stroke-linecap="butt" transform="matrix(0.745659, -0.0805758, 0.0805758, 0.745659, 165.044672, 108.59028)" fill="none" stroke-linejoin="miter" d="M 19.234598 7.169874 L 15.654405 51.50015 L 1.919854 52.216231 L 1.921947 8.080797 Z M 19.234598 7.169874 " stroke="#336dbf" stroke-width="4.583335" stroke-opacity="1" stroke-miterlimit="4"/><path stroke-linecap="butt" transform="matrix(0.748371, 0.0494083, -0.0494083, 0.748371, 185.0634, 106.472959)" fill="none" stroke-linejoin="miter" d="M 31.443907 17.26252 L 16.533487 37.377022 L 30.91892 37.37726 L 30.72851 51.174987 L 1.690812 52.350894 L 0.389073 39.591222 L 17.379166 17.455116 L 1.823699 18.628256 L 1.690754 5.546094 L 30.857966 5.541283 Z M 31.443907 17.26252 " stroke="#336dbf" stroke-width="4.583335" stroke-opacity="1" stroke-miterlimit="4"/><path stroke-linecap="butt" transform="matrix(0.720495, 0.208294, -0.208294, 0.720495, 215.794474, 109.206986)" fill="none" stroke-linejoin="miter" d="M 31.439805 17.259916 L 16.534618 37.378425 L 30.923204 37.377084 L 30.727396 51.177493 L 1.692036 52.349984 L 0.388709 39.590195 L 17.379502 17.459119 L 1.821272 18.628111 L 1.693089 5.544853 L 30.855882 5.544542 Z M 31.439805 17.259916 " stroke="#336dbf" stroke-width="4.583335" stroke-opacity="1" stroke-miterlimit="4"/><g fill="#ffba08" fill-opacity="1"><g transform="translate(132.138083, 259.803052)"><g><path d="M 30.828125 2.046875 C 30.367188 3.304688 29.738281 4.3125 28.9375 5.0625 C 28.132812 5.8125 27.226562 6.363281 26.21875 6.71875 C 25.207031 7.082031 24.117188 7.28125 22.953125 7.3125 C 21.785156 7.34375 20.609375 7.269531 19.421875 7.09375 C 18.234375 6.925781 17.070312 6.675781 15.9375 6.34375 C 14.800781 6.019531 13.753906 5.679688 12.796875 5.328125 C 11.847656 4.972656 10.878906 4.570312 9.890625 4.125 C 8.898438 3.6875 7.929688 3.195312 6.984375 2.65625 C 6.035156 2.125 5.125 1.535156 4.25 0.890625 C 3.375 0.242188 2.582031 -0.445312 1.875 -1.1875 L 12.640625 -30.71875 C 13.628906 -30.769531 14.65625 -30.757812 15.71875 -30.6875 C 16.789062 -30.613281 17.859375 -30.488281 18.921875 -30.3125 C 19.992188 -30.132812 21.046875 -29.910156 22.078125 -29.640625 C 23.109375 -29.378906 24.085938 -29.082031 25.015625 -28.75 C 26.097656 -28.34375 27.164062 -27.867188 28.21875 -27.328125 C 29.28125 -26.785156 30.265625 -26.164062 31.171875 -25.46875 C 32.078125 -24.769531 32.878906 -24.003906 33.578125 -23.171875 C 34.273438 -22.335938 34.816406 -21.421875 35.203125 -20.421875 C 35.597656 -19.429688 35.800781 -18.367188 35.8125 -17.234375 C 35.820312 -16.109375 35.585938 -14.898438 35.109375 -13.609375 C 34.796875 -12.742188 34.378906 -11.984375 33.859375 -11.328125 C 33.347656 -10.671875 32.753906 -10.125 32.078125 -9.6875 C 31.398438 -9.257812 30.65625 -8.953125 29.84375 -8.765625 C 29.03125 -8.585938 28.175781 -8.554688 27.28125 -8.671875 C 28.175781 -8.046875 28.9375 -7.328125 29.5625 -6.515625 C 30.195312 -5.710938 30.671875 -4.847656 30.984375 -3.921875 C 31.296875 -2.992188 31.441406 -2.023438 31.421875 -1.015625 C 31.398438 -0.00390625 31.203125 1.015625 30.828125 2.046875 Z M 24 -15.296875 C 24.15625 -15.734375 24.195312 -16.140625 24.125 -16.515625 C 24.050781 -16.898438 23.921875 -17.238281 23.734375 -17.53125 C 23.546875 -17.820312 23.304688 -18.070312 23.015625 -18.28125 C 22.734375 -18.5 22.472656 -18.648438 22.234375 -18.734375 C 21.929688 -18.847656 21.617188 -18.910156 21.296875 -18.921875 C 20.972656 -18.929688 20.648438 -18.925781 20.328125 -18.90625 L 18.3125 -13.875 C 18.664062 -13.75 19.113281 -13.617188 19.65625 -13.484375 C 20.207031 -13.359375 20.757812 -13.3125 21.3125 -13.34375 C 21.875 -13.375 22.394531 -13.53125 22.875 -13.8125 C 23.363281 -14.09375 23.738281 -14.585938 24 -15.296875 Z M 18 -9.015625 C 17.5625 -9.179688 17.109375 -9.285156 16.640625 -9.328125 L 14.65625 -4.15625 C 14.863281 -4.007812 15.070312 -3.878906 15.28125 -3.765625 C 15.488281 -3.648438 15.695312 -3.550781 15.90625 -3.46875 C 16.226562 -3.351562 16.59375 -3.257812 17 -3.1875 C 17.40625 -3.113281 17.8125 -3.117188 18.21875 -3.203125 C 18.632812 -3.296875 19.019531 -3.476562 19.375 -3.75 C 19.738281 -4.019531 20.023438 -4.441406 20.234375 -5.015625 C 20.441406 -5.597656 20.5 -6.113281 20.40625 -6.5625 C 20.3125 -7.007812 20.144531 -7.394531 19.90625 -7.71875 C 19.664062 -8.039062 19.367188 -8.304688 19.015625 -8.515625 C 18.660156 -8.734375 18.320312 -8.898438 18 -9.015625 Z M 18 -9.015625 "/></g></g></g><g fill="#ffba08" fill-opacity="1"><g transform="translate(162.411702, 270.677759)"><g><path d="M 33.296875 -23.5625 C 33.160156 -22.363281 32.957031 -21.046875 32.6875 -19.609375 C 32.414062 -18.179688 32.0625 -16.710938 31.625 -15.203125 C 31.195312 -13.703125 30.6875 -12.1875 30.09375 -10.65625 C 29.5 -9.125 28.8125 -7.664062 28.03125 -6.28125 C 27.25 -4.894531 26.375 -3.613281 25.40625 -2.4375 C 24.445312 -1.269531 23.390625 -0.273438 22.234375 0.546875 C 21.078125 1.378906 19.8125 1.992188 18.4375 2.390625 C 17.0625 2.785156 15.570312 2.894531 13.96875 2.71875 C 12.09375 2.507812 10.492188 2.019531 9.171875 1.25 C 7.859375 0.488281 6.765625 -0.457031 5.890625 -1.59375 C 5.023438 -2.738281 4.351562 -4.03125 3.875 -5.46875 C 3.40625 -6.90625 3.078125 -8.40625 2.890625 -9.96875 C 2.710938 -11.539062 2.644531 -13.128906 2.6875 -14.734375 C 2.738281 -16.347656 2.847656 -17.890625 3.015625 -19.359375 C 3.265625 -21.628906 3.625 -23.878906 4.09375 -26.109375 C 4.570312 -28.335938 5.15625 -30.554688 5.84375 -32.765625 L 17.140625 -31.046875 C 16.421875 -28.546875 15.753906 -26.03125 15.140625 -23.5 C 14.535156 -20.96875 14.085938 -18.410156 13.796875 -15.828125 C 13.765625 -15.554688 13.734375 -15.148438 13.703125 -14.609375 C 13.671875 -14.066406 13.644531 -13.453125 13.625 -12.765625 C 13.613281 -12.085938 13.628906 -11.390625 13.671875 -10.671875 C 13.722656 -9.953125 13.816406 -9.289062 13.953125 -8.6875 C 14.097656 -8.082031 14.296875 -7.578125 14.546875 -7.171875 C 14.804688 -6.765625 15.140625 -6.539062 15.546875 -6.5 C 16.023438 -6.445312 16.472656 -6.617188 16.890625 -7.015625 C 17.304688 -7.421875 17.695312 -7.976562 18.0625 -8.6875 C 18.4375 -9.40625 18.785156 -10.234375 19.109375 -11.171875 C 19.429688 -12.117188 19.722656 -13.109375 19.984375 -14.140625 C 20.242188 -15.179688 20.476562 -16.21875 20.6875 -17.25 C 20.894531 -18.289062 21.078125 -19.257812 21.234375 -20.15625 C 21.390625 -21.0625 21.515625 -21.863281 21.609375 -22.5625 C 21.703125 -23.257812 21.769531 -23.78125 21.8125 -24.125 C 21.957031 -25.382812 22.078125 -26.640625 22.171875 -27.890625 C 22.273438 -29.148438 22.351562 -30.40625 22.40625 -31.65625 L 33.78125 -30.375 C 33.71875 -28.125 33.554688 -25.851562 33.296875 -23.5625 Z M 33.296875 -23.5625 "/></g></g></g><g fill="#ffba08" fill-opacity="1"><g transform="translate(195.590787, 273.818519)"><g><path d="M 20.640625 -29.140625 L 11.109375 -12.953125 L 21.828125 -14.078125 L 22.78125 -3.78125 L 1.21875 -0.609375 L -0.75 -10.03125 L 10.15625 -27.875 L -1.328125 -25.78125 L -2.46875 -35.515625 L 19.28125 -37.8125 Z M 20.640625 -29.140625 "/></g></g></g><g fill="#ffba08" fill-opacity="1"><g transform="translate(221.688389, 270.885708)"><g><path d="M 14.734375 -32.515625 L 8.453125 -14.8125 L 18.765625 -17.96875 L 21.640625 -8.03125 L 1.0625 -0.84375 L -2.65625 -9.71875 L 4.703125 -29.296875 L -6.203125 -25.0625 L -9.171875 -34.421875 L 11.765625 -40.796875 Z M 14.734375 -32.515625 "/></g></g></g><g fill="#ffba08" fill-opacity="1"><g transform="translate(246.038885, 262.867112)"><g/></g></g><path stroke-linecap="butt" transform="matrix(0.704199, 0.258076, -0.258076, 0.704199, 145.816109, 222.480485)" fill="none" stroke-linejoin="miter" d="M 39.545071 41.410913 C 39.545592 43.213523 39.215754 44.765549 38.555557 46.066991 C 37.890469 47.370226 37.008625 48.475543 35.900244 49.386529 C 34.791862 50.297514 33.521976 51.040258 32.074122 51.615246 C 30.63295 52.193332 29.133608 52.642966 27.566316 52.967731 C 26.005707 53.295593 24.436803 53.510007 22.868079 53.618961 C 21.292673 53.724816 19.821268 53.781462 18.456963 53.782217 C 17.109122 53.782486 15.715322 53.733033 14.270675 53.635649 C 12.830917 53.536473 11.394105 53.369653 9.958446 53.130299 C 8.527677 52.889152 7.119414 52.573192 5.728281 52.167748 C 4.338939 51.767195 3.028996 51.265432 1.789974 50.654471 L 1.724776 8.731349 C 2.940996 8.235704 4.229416 7.78571 5.59672 7.384466 C 6.964025 6.983222 8.359518 6.643759 9.780101 6.37276 C 11.200685 6.101761 12.618324 5.898407 14.029433 5.752916 C 15.437444 5.614107 16.804694 5.545708 18.129391 5.542827 C 19.67169 5.543405 21.226689 5.639177 22.80286 5.838131 C 24.372349 6.033986 25.887865 6.355017 27.343211 6.814586 C 28.796765 7.269266 30.150541 7.86036 31.40943 8.586076 C 32.668318 9.311792 33.769232 10.211891 34.713477 11.274801 C 35.657721 12.337711 36.39281 13.571573 36.927217 14.984376 C 37.459832 16.392289 37.723788 18.020696 37.723975 19.867804 C 37.725244 21.08215 37.54967 22.222628 37.205243 23.280763 C 36.857717 24.345582 36.35862 25.299535 35.704854 26.149307 C 35.054186 26.992397 34.264825 27.714355 33.330089 28.312084 C 32.395353 28.909813 31.347195 29.349414 30.174043 29.629581 C 31.585557 29.99982 32.87023 30.53858 34.031647 31.255641 C 35.193063 31.972702 36.177763 32.843279 36.988845 33.860691 C 37.806609 34.881201 38.433805 36.032568 38.880215 37.311207 C 39.321734 38.59164 39.544983 39.957611 39.545071 41.410913 Z M 23.010675 22.858069 C 23.013549 22.230196 22.884052 21.695211 22.620392 21.248224 C 22.363414 20.804335 22.041224 20.439815 21.660504 20.157764 C 21.279783 19.875713 20.871666 19.670267 20.42458 19.540121 C 19.977494 19.409974 19.581742 19.344221 19.237325 19.342861 C 18.800812 19.347516 18.379123 19.407757 17.967853 19.541839 C 17.554792 19.67103 17.155582 19.82288 16.76354 19.994291 L 16.56676 27.22214 C 17.066027 27.222221 17.682661 27.17929 18.421551 27.091554 C 19.160442 27.003818 19.873269 26.814693 20.55335 26.521079 C 21.240114 26.230563 21.818833 25.79659 22.296189 25.222259 C 22.771753 24.643036 23.010512 23.856604 23.010675 22.858069 Z M 18.390844 33.470856 C 17.75808 33.469774 17.155298 33.535364 16.566033 33.668113 L 16.439149 41.086682 C 16.762366 41.151283 17.083791 41.210993 17.398534 41.267605 C 17.711484 41.319327 18.022156 41.349696 18.326965 41.34893 C 18.781733 41.348679 19.279541 41.299371 19.820389 41.201008 C 20.366128 41.100853 20.872924 40.909574 21.353657 40.616906 C 21.827707 40.321139 22.226305 39.925442 22.537878 39.428508 C 22.854341 38.929781 23.011092 38.267704 23.01302 37.440482 C 23.010058 36.615053 22.853525 35.945752 22.539837 35.422799 C 22.226148 34.899845 21.840231 34.497663 21.383392 34.204678 C 20.931443 33.909902 20.428132 33.717154 19.886339 33.616169 C 19.346338 33.520074 18.845612 33.470604 18.390844 33.470856 Z M 18.390844 33.470856 " stroke="#336dbf" stroke-width="4.583335" stroke-opacity="1" stroke-miterlimit="4"/><path stroke-linecap="butt" transform="matrix(0.745245, 0.0843156, -0.0843156, 0.745245, 166.880427, 231.17975)" fill="none" stroke-linejoin="miter" d="M 40.5871 16.804029 C 40.590895 18.412759 40.512754 20.177523 40.359609 22.113261 C 40.211053 24.043238 39.959671 26.037265 39.611224 28.09993 C 39.262776 30.162596 38.812579 32.252498 38.260046 34.364461 C 37.708099 36.481599 37.020819 38.514459 36.193617 40.468801 C 35.371591 42.422558 34.409547 44.250634 33.312662 45.952443 C 32.215777 47.654253 30.958571 49.143572 29.539873 50.41005 C 28.116584 51.682289 26.525948 52.679934 24.76855 53.40816 C 23.011152 54.136386 21.060341 54.498619 18.910942 54.495445 C 16.395171 54.497029 14.205276 54.089595 12.352192 53.277144 C 10.499109 52.464694 8.907152 51.365864 7.582669 49.990418 C 6.2576 48.609798 5.174808 47.007829 4.32736 45.169571 C 3.480499 43.336489 2.820931 41.398351 2.34231 39.345394 C 1.864274 37.297612 1.53281 35.201797 1.348502 33.063126 C 1.164195 30.924455 1.073231 28.869571 1.075027 26.893299 C 1.072404 23.858732 1.227382 20.8273 1.529611 17.800174 C 1.831841 14.773049 2.265795 11.751987 2.830889 8.731813 L 18.066471 9.319618 C 17.476842 12.725203 16.972945 16.147295 16.549605 19.586481 C 16.126266 23.025667 15.914623 26.482835 15.914677 29.957984 C 15.914262 30.324941 15.934339 30.873033 15.963974 31.598257 C 15.99937 32.328071 16.059659 33.138934 16.146015 34.041196 C 16.231785 34.938282 16.357295 35.862321 16.516785 36.808724 C 16.680864 37.749367 16.904611 38.615118 17.186854 39.395628 C 17.469097 40.176137 17.808571 40.813891 18.211036 41.31348 C 18.613502 41.813068 19.082189 42.064052 19.627448 42.065261 C 20.256098 42.062277 20.820321 41.767814 21.318361 41.166344 C 21.816986 40.57005 22.256548 39.776017 22.635877 38.773895 C 23.015791 37.776948 23.347088 36.628254 23.629767 35.327815 C 23.91186 34.0222 24.151871 32.66893 24.348628 31.257656 C 24.540211 29.846967 24.700155 28.434615 24.818697 27.026948 C 24.936654 25.614106 25.034684 24.303108 25.112201 23.088779 C 25.189718 21.874449 25.235881 20.799948 25.255866 19.864689 C 25.281611 18.93402 25.291716 18.235749 25.292529 17.779641 C 25.290301 16.09211 25.261611 14.402332 25.207631 12.720656 C 25.15365 11.03898 25.073792 9.360232 24.963469 7.690173 L 40.195576 7.691317 C 40.455794 10.686257 40.589557 13.721713 40.5871 16.804029 Z M 40.5871 16.804029 " stroke="#336dbf" stroke-width="4.583335" stroke-opacity="1" stroke-miterlimit="4"/><path stroke-linecap="butt" transform="matrix(0.745877, -0.0785351, 0.0785351, 0.745877, 191.428425, 234.287051)" fill="none" stroke-linejoin="miter" d="M 31.440138 17.259568 L 16.532878 37.376883 L 30.919131 37.378117 L 30.728173 51.178784 L 1.690922 52.347743 L 0.389546 39.589246 L 17.378838 17.454901 L 1.821389 18.629156 L 1.690911 5.543553 L 30.856259 5.545487 Z M 31.440138 17.259568 " stroke="#336dbf" stroke-width="4.583335" stroke-opacity="1" stroke-miterlimit="4"/><path stroke-linecap="butt" transform="matrix(0.717434, -0.218604, 0.218604, 0.717434, 210.102368, 232.861684)" fill="none" stroke-linejoin="miter" d="M 31.442755 17.260013 L 16.536069 37.377172 L 30.921057 37.377294 L 30.724419 51.174263 L 1.694962 52.347247 L 0.388011 39.589436 L 17.379194 17.455837 L 1.820297 18.627996 L 1.691097 5.543011 L 30.858171 5.544467 Z M 31.442755 17.260013 " stroke="#336dbf" stroke-width="4.583335" stroke-opacity="1" stroke-miterlimit="4"/></svg>